<svg id="Grupo_8158" data-name="Grupo 8158" xmlns="http://www.w3.org/2000/svg" width="50.999" height="58.621" viewBox="0 0 50.999 58.621">
  <path id="Caminho_210" data-name="Caminho 210" d="M134.714,82.693a.862.862,0,0,0-.431.747V98l-1.744-1.981a.9.9,0,0,0-1-.227l-1.814.74V80.286l24.227-13.974-.851-1.494L128.449,79.041a.879.879,0,0,0-.449.747V97.823a.894.894,0,0,0,1.226.8l2.419-1,2.849,3.233a.864.864,0,0,0,1.512-.57V83.937l24.248-14-.862-1.494Z" transform="translate(-120.479 -59.659)" fill="#bfd3f6"/>
  <path id="Caminho_211" data-name="Caminho 211" d="M99.567,32.4,74.93,18.178a.862.862,0,0,0-.862,0L49.431,32.4a.862.862,0,0,0-.431.747V61.6a.862.862,0,0,0,.431.747L74.068,76.567a.863.863,0,0,0,.862,0L99.567,62.343A.862.862,0,0,0,100,61.6V33.148a.862.862,0,0,0-.431-.747ZM74.5,19.92,97.41,33.147,74.5,46.375,51.589,33.147ZM50.725,34.64,73.637,47.868V74.327L50.725,61.1ZM75.362,74.327V47.868L98.274,34.64V61.1Z" transform="translate(-49 -18.062)" fill="#bfd3f6"/>
</svg>
