<svg id="_095-box-14" data-name="095-box-14" xmlns="http://www.w3.org/2000/svg" width="58.879" height="58.959" viewBox="0 0 58.879 58.959">
  <path id="Caminho_262" data-name="Caminho 262" d="M268.317,236.868,280.9,229.6l-1.324-.765-12.615,7.283Z" transform="translate(-236.066 -202.618)" fill="#bfd3f6"/>
  <path id="Caminho_264" data-name="Caminho 264" d="M162.237,20.109,147.8,11.966a.871.871,0,0,0-.857,0l-14.48,8.143a.865.865,0,0,0-.459.728V37.1h1.723v-14.8l4.185,2.332v9.948a.839.839,0,0,0,.265.6l4.232,4.071a.879.879,0,0,0,.94.178.843.843,0,0,0,.531-.778l-.012-10.684,2.662,1.5v15.8h1.723v-15.8l12.678-7.172V37.1h1.723V20.838A.82.82,0,0,0,162.237,20.109Zm-14.864-6.444L160.1,20.837l-12.727,7.171L144.7,26.493l6.539-3.756a.831.831,0,0,0,.012-1.442l-4.006-2.389a.88.88,0,0,0-.878-.012l-7.6,4.263-4.119-2.32ZM142.13,26.5l.01,10.131-2.509-2.408V24.6l7.143-4,2.348,1.4-6.569,3.775A.835.835,0,0,0,142.13,26.5Z" transform="translate(-117.825 -11.853)" fill="#bfd3f6"/>
  <path id="Caminho_265" data-name="Caminho 265" d="M72.453,223.249,58.17,215.106a.861.861,0,0,0-.852,0l-13.879,7.913-13.879-7.913a.861.861,0,0,0-.852,0l-14.283,8.143a.839.839,0,0,0-.426.728v16.287a.839.839,0,0,0,.426.728l14.283,8.143a.861.861,0,0,0,.852,0l13.879-7.913,13.879,7.913a.861.861,0,0,0,.852,0l14.283-8.143a.839.839,0,0,0,.426-.728V223.977a.839.839,0,0,0-.426-.728Zm-14.709-6.444,12.58,7.172-12.579,7.171L55.1,229.633l6.462-3.756a.835.835,0,0,0,.012-1.442l-3.959-2.39a.86.86,0,0,0-.868-.012L49.234,226.3l-4.07-2.32Zm-13.453,8.6,4.136,2.356v9.948a.824.824,0,0,0,.242.6l4.173,4.071a.856.856,0,0,0,.925.176.838.838,0,0,0,.52-.776l.006-10.684,2.65,1.5v14.347l-12.652-7.2Zm8.69,3.5a.839.839,0,0,0-.42.726l.029,10.131-2.46-2.408v-9.621l7.04-4,2.311,1.4ZM29.135,216.8l12.58,7.172-12.579,7.171-2.644-1.515,6.462-3.756a.835.835,0,0,0,.012-1.442l-3.959-2.389a.86.86,0,0,0-.868-.012L20.625,226.3l-4.071-2.32ZM23.992,239.77l-2.45-2.409v-9.621l7.03-4,2.305,1.4-6.5,3.775a.831.831,0,0,0-.411.726ZM15.7,225.433l4.136,2.332v9.948a.815.815,0,0,0,.231.6l4.168,4.071a.847.847,0,0,0,1.44-.6L25.634,231.1l2.6,1.5v14.347L15.7,239.779Zm14.233,21.518V232.6l12.652-7.172v14.345Zm28.71,0V232.6l12.53-7.172v14.345Z" transform="translate(-14 -190.289)" fill="#bfd3f6"/>
</svg>
