<svg xmlns="http://www.w3.org/2000/svg" width="69.276" height="52.953" viewBox="0 0 69.276 52.953">
  <g id="Grupo_284" data-name="Grupo 284" transform="translate(0 0)">
    <path id="Caminho_220" data-name="Caminho 220" d="M85.48,132.181l10.947,6.328a1,1,0,0,0,.5.137,1.01,1.01,0,0,0,.508-.137l10.988-6.328a1.049,1.049,0,0,0,.538-.886V118.638a1.051,1.051,0,0,0-.54-.886L97.45,111.424a1.036,1.036,0,0,0-1.03,0l-10.937,6.328a1,1,0,0,0-.486.886v12.657A1,1,0,0,0,85.48,132.181Zm1.563-11.772,8.915,5.147v10.3L87.043,130.7Zm9.881,3.376-3.542-2.046,8.915-5.147,3.542,2.045ZM98,135.851v-10.3l8.915-5.148v10.3Zm-1.08-22.361,3.326,1.92-8.915,5.147-3.326-1.92Z" transform="translate(-75.351 -104.814)" fill="#bfd3f6"/>
    <path id="Caminho_221" data-name="Caminho 221" d="M81.715,99.618,80.465,92.8a6.461,6.461,0,0,0-.4-1.392,6.882,6.882,0,0,0-6.349-4.073H64.5a1.09,1.09,0,0,0-1.07,1.03v15.122H62.115V73.537a6.37,6.37,0,0,0-2.006-4.627A7.023,7.023,0,0,0,55.253,67H25.895a7.053,7.053,0,0,0-4.87,1.907A6.4,6.4,0,0,0,19,73.537v38.795a1.626,1.626,0,0,0,1.608,1.6h7.015v-1.949H21.046v-6.545H63.43v6.545H40.192v1.949H68.465a1.08,1.08,0,0,0,.734-.327.915.915,0,0,0,.289-.692c0-.037,0-.1,0-.1H68.4v-.835H65.476V101.534H81.381c2.137,0,4.849,2.791,4.849,5.9v4.543H80.969v.835H79.918s0,.043,0,.08a.984.984,0,0,0,.289.723,1.063,1.063,0,0,0,.734.311h5.729a1.626,1.626,0,0,0,1.608-1.595v-4.9C88.276,103.993,85.378,99.858,81.715,99.618ZM25.895,68.949H55.253a4.922,4.922,0,0,1,3.41,1.338,4.464,4.464,0,0,1,1.406,3.249v29.946H21.046V73.537a4.491,4.491,0,0,1,1.425-3.252A4.951,4.951,0,0,1,25.895,68.949Zm52.276,23.2a4.377,4.377,0,0,1,.278.958l1.187,6.479H73.661V89.28h.052A4.838,4.838,0,0,1,78.17,92.146ZM65.476,89.28h6.138v10.3H65.476Z" transform="translate(-19 -67)" fill="#bfd3f6"/>
    <path id="Caminho_222" data-name="Caminho 222" d="M352.624,358.31a7.262,7.262,0,0,0,12.338-5.014c0-.059,0-.118,0-.177a7.262,7.262,0,1,0-14.523,0c0,.058,0,.118,0,.17A7.22,7.22,0,0,0,352.624,358.31ZM357.7,347.9a5.221,5.221,0,0,1,5.215,5.216c0,.039,0,.078,0,.123a5.216,5.216,0,0,1-10.429-.006c0-.039,0-.078,0-.117A5.222,5.222,0,0,1,357.7,347.9Z" transform="translate(-302 -307.429)" fill="#bfd3f6"/>
    <path id="Caminho_223" data-name="Caminho 223" d="M73.411,358.314A7.262,7.262,0,0,0,85.749,353.3c0-.058,0-.118,0-.177a7.235,7.235,0,0,0-1.955-4.955l-.016-.017-.031-.032a7.257,7.257,0,0,0-10.52,0l-.031.033-.015.016a7.235,7.235,0,0,0-1.955,4.955c0,.058,0,.118,0,.17a7.22,7.22,0,0,0,2.181,5.02Zm1.267-8.749.011-.012.019-.02a5.211,5.211,0,0,1,7.563,0l.016.016.015.015a5.2,5.2,0,0,1,1.4,3.558c0,.039,0,.078,0,.123a5.216,5.216,0,0,1-10.429-.006c0-.039,0-.078,0-.117a5.2,5.2,0,0,1,1.4-3.558Z" transform="translate(-63.595 -307.433)" fill="#bfd3f6"/>
  </g>
</svg>
