<svg id="Grupo_277" data-name="Grupo 277" xmlns="http://www.w3.org/2000/svg" width="58.502" height="55.126" viewBox="0 0 58.502 55.126">
  <g id="_061-logistic-3" data-name="061-logistic-3" transform="translate(0)">
    <path id="Caminho_212" data-name="Caminho 212" d="M64.857,183.8a7.943,7.943,0,0,1,7.926,7.989h1.8a9.59,9.59,0,0,0-2.839-6.923A9.7,9.7,0,0,0,64.857,182H61.849a9.705,9.705,0,0,0-6.892,2.871,9.59,9.59,0,0,0-2.838,6.922h1.8a7.943,7.943,0,0,1,7.927-7.989Z" transform="translate(-49.139 -163.985)" fill="#bfd3f6"/>
    <path id="Caminho_213" data-name="Caminho 213" d="M86.633,49.052A6.853,6.853,0,1,0,93.486,42.2,6.853,6.853,0,0,0,86.633,49.052Zm11.9,0A5.049,5.049,0,1,1,93.486,44a5.049,5.049,0,0,1,5.049,5.048Z" transform="translate(-79.206 -42.2)" fill="#bfd3f6"/>
    <path id="Caminho_214" data-name="Caminho 214" d="M347.313,89H333.942a.924.924,0,0,0-.942.887V99.946a.882.882,0,0,1,0,.335V110.34a.9.9,0,0,0,1.8,0v-9.1h2.448v3.438a.887.887,0,0,0,.839.943h5.072a.952.952,0,0,0,.919-.943V101.24h2.32v9.1a.9.9,0,1,0,1.8,0V100.28a.881.881,0,0,1,0-.335V89.886a.881.881,0,0,0-.892-.887Zm-8.257,1.8h3.222V93.38h-3.222Zm3.222,13.015h-3.222V101.24h3.222ZM334.8,99.436V90.8h2.448v3.482a.848.848,0,0,0,.839.9h5.072a.914.914,0,0,0,.919-.9V90.8h2.32v8.634Z" transform="translate(-293.827 -82.968)" fill="#bfd3f6"/>
    <path id="Caminho_215" data-name="Caminho 215" d="M239.6,181.8a.9.9,0,0,0,.9-.9V170.843a.886.886,0,0,0-.939-.843h-10.6a.91.91,0,0,0-.965.843V180.9a.9.9,0,0,0,1.8,0v-9.1h1.675v3.438a.972.972,0,0,0,.942.943h3.684a.949.949,0,0,0,.915-.943V171.8H238.7v9.1A.9.9,0,0,0,239.6,181.8Zm-4.381-7.423h-1.933V171.8h1.933Z" transform="translate(-202.357 -153.532)" fill="#bfd3f6"/>
    <path id="Caminho_216" data-name="Caminho 216" d="M29.9,257.762h2.319v18.788a.966.966,0,0,0,.95.927H83.265a.911.911,0,0,0,.887-.927V257.762H86.6a.9.9,0,0,0,.9-.9v-6.932a.93.93,0,0,0-.9-.935H29.9a.93.93,0,0,0-.9.935v6.932a.9.9,0,0,0,.9.9Zm52.446,17.911H34.025V257.762H82.348ZM30.8,250.8H85.7v5.154H30.8Z" transform="translate(-29 -222.352)" fill="#bfd3f6"/>
  </g>
</svg>
