<svg xmlns="http://www.w3.org/2000/svg" width="47.167" height="58.958" viewBox="0 0 47.167 58.958">
  <g id="_057-location" data-name="057-location" transform="translate(0 0)">
    <path id="Caminho_227" data-name="Caminho 227" d="M156.563,123.046a16.523,16.523,0,1,0-16.484-16.524A16.522,16.522,0,0,0,156.563,123.046Zm0-31.1a14.577,14.577,0,1,1-14.494,14.576A14.552,14.552,0,0,1,156.563,91.946Z" transform="translate(-132.979 -84.493)" fill="#bfd3f6"/>
    <path id="Caminho_228" data-name="Caminho 228" d="M204.317,181.508a.973.973,0,0,0,1.36.016l8.871-8.473a.973.973,0,1,0-1.344-1.408l-8.183,7.816-4.359-4.359a.973.973,0,1,0-1.376,1.376Z" transform="translate(-183.341 -153.91)" fill="#bfd3f6"/>
    <path id="Caminho_10001" data-name="Caminho 10001" d="M95.841,91.687l16.039,17.341a.979.979,0,0,0,1.442,0l16.037-17.341a25.468,25.468,0,0,0,5.373-8.658,23.93,23.93,0,0,0,1.4-9.715,25.207,25.207,0,0,0-7.121-16.01,22.935,22.935,0,0,0-32.83,0,25.208,25.208,0,0,0-7.121,16.01,23.929,23.929,0,0,0,1.4,9.715A25.467,25.467,0,0,0,95.841,91.687Zm-4.8-18.239a23.187,23.187,0,0,1,6.549-14.727,20.978,20.978,0,0,1,30.029,0,23.187,23.187,0,0,1,6.549,14.727,21.911,21.911,0,0,1-1.289,8.893,23.468,23.468,0,0,1-4.957,7.972L112.6,106.876,97.282,90.313a23.473,23.473,0,0,1-4.957-7.972,21.907,21.907,0,0,1-1.289-8.894Z" transform="translate(-89.016 -50.387)" fill="#bfd3f6"/>
  </g>
</svg>
