<svg xmlns="http://www.w3.org/2000/svg" width="60.801" height="59.431" viewBox="0 0 60.801 59.431">
  <g id="_010-call-center" data-name="010-call-center" transform="translate(0 0)">
    <path id="Caminho_245" data-name="Caminho 245" d="M40.779,446.056h9.346l.838-3.3a2.488,2.488,0,0,1,2.417-1.87h.011c1.209,0,3.276,0,3.483.006.035,0,.07,0,.1,0v1.12H55.654a2.488,2.488,0,0,0-2.417,1.87l-.838,3.3H40.525C40.6,446.864,40.687,446.484,40.779,446.056Z" transform="translate(-37.075 -388.837)" fill="#bfd3f6"/>
    <path id="Caminho_246" data-name="Caminho 246" d="M378.027,59.691h4.267a.846.846,0,1,0,0-1.691h-4.267a.846.846,0,1,0,0,1.691Z" transform="translate(-331.592 -52.202)" fill="#bfd3f6"/>
    <path id="Caminho_247" data-name="Caminho 247" d="M315.8,59.691h4.975a.846.846,0,1,0,0-1.691H315.8a.846.846,0,1,0,0,1.691Z" transform="translate(-277.15 -52.202)" fill="#bfd3f6"/>
    <path id="Caminho_248" data-name="Caminho 248" d="M441.166,58H439.6a.846.846,0,1,0,0,1.691h1.567a.846.846,0,1,0,0-1.691Z" transform="translate(-385.463 -52.202)" fill="#bfd3f6"/>
    <path id="Caminho_249" data-name="Caminho 249" d="M301.8,98.691h8.157a.846.846,0,1,0,0-1.691H301.8a.846.846,0,1,0,0,1.691Z" transform="translate(-264.901 -86.491)" fill="#bfd3f6"/>
    <path id="Caminho_250" data-name="Caminho 250" d="M398.828,97h-7.62a.846.846,0,1,0,0,1.691h7.62a.846.846,0,1,0,0-1.691Z" transform="translate(-343.124 -86.491)" fill="#bfd3f6"/>
    <path id="Caminho_251" data-name="Caminho 251" d="M320.058,136H301.176a.846.846,0,1,0,0,1.691h18.882a.846.846,0,1,0,0-1.691Z" transform="translate(-264.354 -120.78)" fill="#bfd3f6"/>
    <path id="Caminho_252" data-name="Caminho 252" d="M184.669,10H147.76A3.667,3.667,0,0,0,144,13.57V32.211a3.723,3.723,0,0,0,3.76,3.638h8v3.634a.858.858,0,0,0,.513.763.934.934,0,0,0,.384.082.891.891,0,0,0,.555-.175l5.521-4.305h21.938a3.7,3.7,0,0,0,3.738-3.638V13.57a3.52,3.52,0,0,0-1.1-2.536A3.778,3.778,0,0,0,184.669,10Zm1.987,22.212a1.979,1.979,0,0,1-1.987,1.947H162.421a.924.924,0,0,0-.566.175l-4.345,3.377V34.975a.784.784,0,0,0-.242-.584.842.842,0,0,0-.6-.233h-8.9a2,2,0,0,1-2.009-1.947V13.57a1.875,1.875,0,0,1,.6-1.343,2.012,2.012,0,0,1,1.409-.537h36.909a1.993,1.993,0,0,1,1.4.539,1.857,1.857,0,0,1,.587,1.341Z" transform="translate(-127.606 -9.999)" fill="#bfd3f6"/>
    <path id="Caminho_253" data-name="Caminho 253" d="M288.874,175h-3.981a.846.846,0,1,0,0,1.691h3.981a.846.846,0,1,0,0-1.691Z" transform="translate(-250.108 -155.069)" fill="#bfd3f6"/>
    <path id="Caminho_254" data-name="Caminho 254" d="M189.247,175H178.955a.846.846,0,1,0,0,1.691h10.292a.846.846,0,1,0,0-1.691Z" transform="translate(-157.422 -155.069)" fill="#bfd3f6"/>
    <path id="Caminho_255" data-name="Caminho 255" d="M354.179,175h-14a.846.846,0,1,0,0,1.691h14a.846.846,0,1,0,0-1.691Z" transform="translate(-298.476 -155.069)" fill="#bfd3f6"/>
    <path id="Caminho_256" data-name="Caminho 256" d="M178.443,51.791l6.3,3.512a.906.906,0,0,0,.877,0l6.312-3.512a.854.854,0,0,0,.452-.732V44.036a.854.854,0,0,0-.451-.732l-6.305-3.512a.909.909,0,0,0-.879,0l-6.3,3.512a.847.847,0,0,0-.445.732v7.023A.845.845,0,0,0,178.443,51.791Zm1.308-6.291,4.5,2.535v5.071l-4.5-2.535Zm5.433,1.071-1.46-.813,4.547-2.535,1.46.814Zm.822,6.535V48.035l4.628-2.535v5.071ZM185.184,41.5l1.336.745-4.547,2.535-1.336-.745Z" transform="translate(-157.353 -36.094)" fill="#bfd3f6"/>
    <path id="Caminho_257" data-name="Caminho 257" d="M15.826,239.7v10.96a.862.862,0,0,0,.911.807h11.6a.855.855,0,0,0,.613-.225.8.8,0,0,0,.258-.582v-2.851a.979.979,0,0,1,.941-.639l1.668.007a.887.887,0,0,0,.644.288l5.218.077h.03a2.6,2.6,0,0,0,2.641-2.514,2.471,2.471,0,0,0-.733-1.816,2.754,2.754,0,0,0-1.779-.765v-2.214h2.924a1.437,1.437,0,0,0,1.2-.583,1.332,1.332,0,0,0,.161-1.285l-2.438-6.16c0-.69-.008-2.282-.021-2.493a13.676,13.676,0,0,0-13.858-12.665h-.157q-.18,0-.357.008A12.771,12.771,0,0,0,14.728,223.2a12.123,12.123,0,0,0-.332,12.093A25.03,25.03,0,0,1,15.826,239.7ZM38.6,245.036a.9.9,0,0,1-.886.876h-.01l-4.34-.111.025-1.7h4.331a.922.922,0,0,1,.627.292A.912.912,0,0,1,38.6,245.036Zm-12.946-26.3H25.8a11.926,11.926,0,0,1,12.112,11.072c.008.154.018,1.434.02,2.559a.7.7,0,0,0,.058.275l2.342,5.9h-3.4a.874.874,0,0,0-.842.894v2.971H32.528a.877.877,0,0,0-.876.851l-.012.788-2.495-.01a3.547,3.547,0,0,1-2.457-1.007,3.305,3.305,0,0,1-1-2.39l.01-.991a4.687,4.687,0,0,0,3.786-4.464l.007-.473a4.529,4.529,0,0,0-1.378-3.3,4.676,4.676,0,0,0-2.531-1.31V218.742Zm-.932,12.969a3.1,3.1,0,0,1,2.15.885,2.888,2.888,0,0,1,.867,2.1l-.006.471a3,3,0,0,1-3.045,2.9h-.029a3.045,3.045,0,0,1-2.15-.883,2.867,2.867,0,0,1-.867-2.094l.007-.473a3,3,0,0,1,3.073-2.9Zm-8.494-7.661a11.04,11.04,0,0,1,7.6-5.149v11.191a4.652,4.652,0,0,0-3.945,4.5v.473a4.689,4.689,0,0,0,4.059,4.639l-.008.926a5.141,5.141,0,0,0,5.056,5.1,2.669,2.669,0,0,0-1.506,1.755.818.818,0,0,0-.029.206v2.087H17.577V239.659c0-.026.017-.052.014-.078a25.448,25.448,0,0,0-1.578-4.96.782.782,0,0,0-.038-.074,10.491,10.491,0,0,1,.255-10.5Z" transform="translate(-12.941 -192.038)" fill="#bfd3f6"/>
  </g>
</svg>
